<mxfile host="app.diagrams.net" agent="Mozilla/5.0 (Windows NT 10.0; Win64; x64) AppleWebKit/537.36 (KHTML, like Gecko) Chrome/134.0.0.0 Safari/537.36" version="26.1.0">
  <diagram name="Page-1" id="2Sd5bhrNW43mqjLeEP4p">
    <mxGraphModel dx="1050" dy="538" grid="1" gridSize="10" guides="1" tooltips="1" connect="1" arrows="1" fold="1" page="1" pageScale="1" pageWidth="850" pageHeight="1100" math="0" shadow="0">
      <root>
        <mxCell id="0" />
        <mxCell id="1" parent="0" />
        <mxCell id="Di4bRXJcZ3CmvjJVfljG-7" style="edgeStyle=orthogonalEdgeStyle;rounded=0;orthogonalLoop=1;jettySize=auto;html=1;entryX=0;entryY=0.5;entryDx=0;entryDy=0;" edge="1" parent="1" source="Di4bRXJcZ3CmvjJVfljG-3" target="Di4bRXJcZ3CmvjJVfljG-5">
          <mxGeometry relative="1" as="geometry" />
        </mxCell>
        <mxCell id="Di4bRXJcZ3CmvjJVfljG-3" value="User Input" style="rounded=1;whiteSpace=wrap;html=1;" vertex="1" parent="1">
          <mxGeometry x="40" y="80" width="130" height="100" as="geometry" />
        </mxCell>
        <mxCell id="Di4bRXJcZ3CmvjJVfljG-8" style="edgeStyle=orthogonalEdgeStyle;rounded=0;orthogonalLoop=1;jettySize=auto;html=1;" edge="1" parent="1" source="Di4bRXJcZ3CmvjJVfljG-5" target="Di4bRXJcZ3CmvjJVfljG-6">
          <mxGeometry relative="1" as="geometry" />
        </mxCell>
        <mxCell id="Di4bRXJcZ3CmvjJVfljG-5" value="" style="rounded=1;whiteSpace=wrap;html=1;" vertex="1" parent="1">
          <mxGeometry x="250" y="30" width="250" height="200" as="geometry" />
        </mxCell>
        <mxCell id="Di4bRXJcZ3CmvjJVfljG-6" value="Output" style="rounded=1;whiteSpace=wrap;html=1;" vertex="1" parent="1">
          <mxGeometry x="570" y="80" width="140" height="100" as="geometry" />
        </mxCell>
        <mxCell id="Di4bRXJcZ3CmvjJVfljG-9" value="&lt;b&gt;Agent&lt;/b&gt;" style="text;html=1;align=center;verticalAlign=middle;whiteSpace=wrap;rounded=0;" vertex="1" parent="1">
          <mxGeometry x="345" y="40" width="60" height="30" as="geometry" />
        </mxCell>
        <mxCell id="Di4bRXJcZ3CmvjJVfljG-10" value="" style="rounded=1;whiteSpace=wrap;html=1;" vertex="1" parent="1">
          <mxGeometry x="260" y="70" width="230" height="140" as="geometry" />
        </mxCell>
        <mxCell id="Di4bRXJcZ3CmvjJVfljG-11" value="Dify" style="text;html=1;align=center;verticalAlign=middle;whiteSpace=wrap;rounded=0;" vertex="1" parent="1">
          <mxGeometry x="345" y="80" width="60" height="30" as="geometry" />
        </mxCell>
        <mxCell id="Di4bRXJcZ3CmvjJVfljG-19" value="tools" style="rounded=1;whiteSpace=wrap;html=1;" vertex="1" parent="1">
          <mxGeometry x="280" y="120" width="45" height="30" as="geometry" />
        </mxCell>
        <mxCell id="Di4bRXJcZ3CmvjJVfljG-20" value="Feature" style="rounded=1;whiteSpace=wrap;html=1;" vertex="1" parent="1">
          <mxGeometry x="345" y="120" width="45" height="30" as="geometry" />
        </mxCell>
        <mxCell id="Di4bRXJcZ3CmvjJVfljG-27" style="edgeStyle=orthogonalEdgeStyle;rounded=0;orthogonalLoop=1;jettySize=auto;html=1;strokeColor=#FF5814;strokeWidth=2;" edge="1" parent="1" source="Di4bRXJcZ3CmvjJVfljG-21" target="Di4bRXJcZ3CmvjJVfljG-26">
          <mxGeometry relative="1" as="geometry" />
        </mxCell>
        <mxCell id="Di4bRXJcZ3CmvjJVfljG-21" value="RAG" style="rounded=1;whiteSpace=wrap;html=1;" vertex="1" parent="1">
          <mxGeometry x="340" y="160" width="70" height="30" as="geometry" />
        </mxCell>
        <mxCell id="Di4bRXJcZ3CmvjJVfljG-22" value="LLM" style="rounded=1;whiteSpace=wrap;html=1;" vertex="1" parent="1">
          <mxGeometry x="410" y="120" width="60" height="30" as="geometry" />
        </mxCell>
        <mxCell id="Di4bRXJcZ3CmvjJVfljG-25" value="UI" style="rounded=1;whiteSpace=wrap;html=1;" vertex="1" parent="1">
          <mxGeometry x="282.5" y="160" width="40" height="30" as="geometry" />
        </mxCell>
        <mxCell id="Di4bRXJcZ3CmvjJVfljG-26" value="RagFlow" style="rounded=1;whiteSpace=wrap;html=1;strokeColor=#FF5814;" vertex="1" parent="1">
          <mxGeometry x="315" y="280" width="120" height="60" as="geometry" />
        </mxCell>
        <mxCell id="Di4bRXJcZ3CmvjJVfljG-28" value="Knowledge API" style="text;html=1;align=center;verticalAlign=middle;whiteSpace=wrap;rounded=0;" vertex="1" parent="1">
          <mxGeometry x="385" y="240" width="60" height="30" as="geometry" />
        </mxCell>
        <mxCell id="Di4bRXJcZ3CmvjJVfljG-42" style="edgeStyle=orthogonalEdgeStyle;rounded=0;orthogonalLoop=1;jettySize=auto;html=1;entryX=0;entryY=0.5;entryDx=0;entryDy=0;" edge="1" parent="1" source="Di4bRXJcZ3CmvjJVfljG-34" target="Di4bRXJcZ3CmvjJVfljG-36">
          <mxGeometry relative="1" as="geometry" />
        </mxCell>
        <mxCell id="Di4bRXJcZ3CmvjJVfljG-34" value="User Input" style="rounded=1;whiteSpace=wrap;html=1;" vertex="1" parent="1">
          <mxGeometry x="45" y="370" width="120" height="60" as="geometry" />
        </mxCell>
        <mxCell id="Di4bRXJcZ3CmvjJVfljG-39" style="edgeStyle=orthogonalEdgeStyle;rounded=0;orthogonalLoop=1;jettySize=auto;html=1;" edge="1" parent="1" source="Di4bRXJcZ3CmvjJVfljG-36" target="Di4bRXJcZ3CmvjJVfljG-38">
          <mxGeometry relative="1" as="geometry" />
        </mxCell>
        <mxCell id="Di4bRXJcZ3CmvjJVfljG-43" style="edgeStyle=orthogonalEdgeStyle;rounded=0;orthogonalLoop=1;jettySize=auto;html=1;entryX=0;entryY=0.5;entryDx=0;entryDy=0;" edge="1" parent="1" source="Di4bRXJcZ3CmvjJVfljG-36" target="Di4bRXJcZ3CmvjJVfljG-37">
          <mxGeometry relative="1" as="geometry" />
        </mxCell>
        <mxCell id="Di4bRXJcZ3CmvjJVfljG-36" value="LLM" style="rounded=1;whiteSpace=wrap;html=1;" vertex="1" parent="1">
          <mxGeometry x="225" y="370" width="120" height="60" as="geometry" />
        </mxCell>
        <mxCell id="Di4bRXJcZ3CmvjJVfljG-37" value="Output" style="rounded=1;whiteSpace=wrap;html=1;" vertex="1" parent="1">
          <mxGeometry x="390" y="370" width="120" height="60" as="geometry" />
        </mxCell>
        <mxCell id="Di4bRXJcZ3CmvjJVfljG-38" value="Docs" style="rounded=1;whiteSpace=wrap;html=1;" vertex="1" parent="1">
          <mxGeometry x="225" y="500" width="120" height="60" as="geometry" />
        </mxCell>
      </root>
    </mxGraphModel>
  </diagram>
</mxfile>
